<svg width="222" height="40" viewBox="0 0 222 40" fill="none" xmlns="http://www.w3.org/2000/svg">
<rect x="4" width="200" height="40" rx="12" fill="#1EC661"/>
<path d="M51.517 29V11.5455H58.5057C59.7898 11.5455 60.8608 11.7358 61.7188 12.1165C62.5767 12.4972 63.2216 13.0256 63.6534 13.7017C64.0852 14.3722 64.3011 15.1449 64.3011 16.0199C64.3011 16.7017 64.1648 17.3011 63.892 17.8182C63.6193 18.3295 63.2443 18.75 62.767 19.0795C62.2955 19.4034 61.7557 19.6335 61.1477 19.7699V19.9403C61.8125 19.9687 62.4347 20.1562 63.0142 20.5028C63.5994 20.8494 64.0739 21.3352 64.4375 21.9602C64.8011 22.5795 64.983 23.3182 64.983 24.1761C64.983 25.1023 64.7528 25.929 64.2926 26.6562C63.8381 27.3778 63.1648 27.9489 62.2727 28.3693C61.3807 28.7898 60.2813 29 58.9744 29H51.517ZM55.2074 25.983H58.2159C59.2443 25.983 59.9943 25.7869 60.4659 25.3949C60.9375 24.9972 61.1733 24.4687 61.1733 23.8097C61.1733 23.3267 61.0568 22.9006 60.8239 22.5312C60.5909 22.1619 60.2585 21.8722 59.8267 21.6619C59.4006 21.4517 58.892 21.3466 58.3011 21.3466H55.2074V25.983ZM55.2074 18.8494H57.9432C58.4489 18.8494 58.8977 18.7614 59.2898 18.5852C59.6875 18.4034 60 18.1477 60.2273 17.8182C60.4602 17.4886 60.5767 17.0938 60.5767 16.6335C60.5767 16.0028 60.3523 15.4943 59.9034 15.108C59.4602 14.7216 58.8295 14.5284 58.0114 14.5284H55.2074V18.8494ZM70.3928 29H66.4382L72.4638 11.5455H77.2195L83.2365 29H79.282L74.9098 15.5341H74.7734L70.3928 29ZM70.1456 22.1392H79.4865V25.0199H70.1456V22.1392ZM99.9176 17.6562H96.1847C96.1165 17.1733 95.9773 16.7443 95.767 16.3693C95.5568 15.9886 95.2869 15.6648 94.9574 15.3977C94.6278 15.1307 94.2472 14.9261 93.8153 14.7841C93.3892 14.642 92.9261 14.571 92.4261 14.571C91.5227 14.571 90.7358 14.7955 90.0653 15.2443C89.3949 15.6875 88.875 16.3352 88.5057 17.1875C88.1364 18.0341 87.9517 19.0625 87.9517 20.2727C87.9517 21.517 88.1364 22.5625 88.5057 23.4091C88.8807 24.2557 89.4034 24.8949 90.0739 25.3267C90.7443 25.7585 91.5199 25.9744 92.4006 25.9744C92.8949 25.9744 93.3523 25.9091 93.7727 25.7784C94.1989 25.6477 94.5767 25.4574 94.9062 25.2074C95.2358 24.9517 95.5085 24.642 95.7244 24.2784C95.946 23.9148 96.0994 23.5 96.1847 23.0341L99.9176 23.0511C99.821 23.8523 99.5795 24.625 99.1932 25.3693C98.8125 26.108 98.2983 26.7699 97.6506 27.3551C97.0085 27.9347 96.2415 28.3949 95.3494 28.7358C94.4631 29.071 93.4602 29.2386 92.3409 29.2386C90.7841 29.2386 89.392 28.8864 88.1648 28.1818C86.9432 27.4773 85.9773 26.4574 85.267 25.1222C84.5625 23.7869 84.2102 22.1705 84.2102 20.2727C84.2102 18.3693 84.5682 16.75 85.2841 15.4148C86 14.0795 86.9716 13.0625 88.1989 12.3636C89.4261 11.6591 90.8068 11.3068 92.3409 11.3068C93.3523 11.3068 94.2898 11.4489 95.1534 11.733C96.0227 12.017 96.7926 12.4318 97.4631 12.9773C98.1335 13.517 98.679 14.179 99.0994 14.9631C99.5256 15.7472 99.7983 16.6449 99.9176 17.6562ZM106.126 21.4318V29H102.496V15.9091H105.956V18.2188H106.109C106.399 17.4574 106.885 16.8551 107.567 16.4119C108.249 15.9631 109.075 15.7386 110.047 15.7386C110.956 15.7386 111.749 15.9375 112.425 16.3352C113.101 16.733 113.626 17.3011 114.001 18.0398C114.376 18.7727 114.564 19.6477 114.564 20.6648V29H110.933V21.3125C110.939 20.5114 110.734 19.8864 110.32 19.4375C109.905 18.983 109.334 18.7557 108.607 18.7557C108.118 18.7557 107.686 18.8608 107.311 19.071C106.942 19.2812 106.652 19.5881 106.442 19.9915C106.237 20.3892 106.132 20.8693 106.126 21.4318ZM123.391 29.2557C122.045 29.2557 120.886 28.983 119.914 28.4375C118.948 27.8864 118.204 27.108 117.681 26.1023C117.158 25.0909 116.897 23.8949 116.897 22.5142C116.897 21.1676 117.158 19.9858 117.681 18.9688C118.204 17.9517 118.94 17.1591 119.888 16.5909C120.843 16.0227 121.962 15.7386 123.246 15.7386C124.11 15.7386 124.914 15.8778 125.658 16.1562C126.408 16.429 127.062 16.8409 127.619 17.392C128.181 17.9432 128.619 18.6364 128.931 19.4716C129.244 20.3011 129.4 21.2727 129.4 22.3864V23.3835H118.346V21.1335H125.982C125.982 20.6108 125.869 20.1477 125.641 19.7443C125.414 19.3409 125.099 19.0256 124.695 18.7983C124.298 18.5653 123.835 18.4489 123.306 18.4489C122.755 18.4489 122.266 18.5767 121.84 18.8324C121.42 19.0824 121.09 19.4205 120.852 19.8466C120.613 20.267 120.491 20.7358 120.485 21.2528V23.392C120.485 24.0398 120.604 24.5994 120.843 25.071C121.087 25.5426 121.431 25.9062 121.874 26.1619C122.317 26.4176 122.843 26.5455 123.451 26.5455C123.854 26.5455 124.224 26.4886 124.559 26.375C124.894 26.2614 125.181 26.0909 125.42 25.8636C125.658 25.6364 125.84 25.358 125.965 25.0284L129.323 25.25C129.153 26.0568 128.803 26.7614 128.275 27.3636C127.752 27.9602 127.076 28.4261 126.246 28.7614C125.423 29.0909 124.471 29.2557 123.391 29.2557ZM138.732 15.9091V18.6364H130.849V15.9091H138.732ZM132.638 12.7727H136.269V24.9773C136.269 25.3125 136.32 25.5739 136.423 25.7614C136.525 25.9432 136.667 26.071 136.849 26.1449C137.036 26.2187 137.252 26.2557 137.496 26.2557C137.667 26.2557 137.837 26.2415 138.008 26.2131C138.178 26.179 138.309 26.1534 138.4 26.1364L138.971 28.8381C138.789 28.8949 138.533 28.9602 138.204 29.0341C137.874 29.1136 137.474 29.1619 137.002 29.179C136.127 29.2131 135.36 29.0966 134.701 28.8295C134.048 28.5625 133.539 28.1477 133.175 27.5852C132.812 27.0227 132.633 26.3125 132.638 25.4545V12.7727ZM145.137 11.5455V29H141.447V11.5455H145.137ZM148.173 29V11.5455H155.06C156.384 11.5455 157.511 11.7983 158.443 12.304C159.375 12.804 160.085 13.5 160.574 14.392C161.068 15.2784 161.315 16.3011 161.315 17.4602C161.315 18.6193 161.065 19.642 160.565 20.5284C160.065 21.4148 159.341 22.1051 158.392 22.5994C157.449 23.0937 156.307 23.3409 154.966 23.3409H150.577V20.3835H154.369C155.08 20.3835 155.665 20.2614 156.125 20.017C156.591 19.767 156.938 19.4233 157.165 18.9858C157.398 18.5426 157.514 18.0341 157.514 17.4602C157.514 16.8807 157.398 16.375 157.165 15.9432C156.938 15.5057 156.591 15.1676 156.125 14.929C155.659 14.6847 155.068 14.5625 154.352 14.5625H151.864V29H148.173Z" fill="white"/>
<circle cx="204" cy="20" r="4" fill="#246F88"/>
<circle cx="204" cy="20" r="4" fill="#246F88"/>
<circle cx="204" cy="20" r="4" fill="#246F88"/>
<circle cx="4" cy="20" r="4" fill="#246F88"/>
<circle cx="4" cy="20" r="4" fill="#246F88"/>
<circle cx="4" cy="20" r="4" fill="#246F88"/>
</svg>
