<svg width="208" height="40" viewBox="0 0 208 40" fill="none" xmlns="http://www.w3.org/2000/svg">
<rect x="4" width="200" height="40" rx="12" fill="#B921DF"/>
<path d="M35.517 11.5455H40.0682L44.875 23.2727H45.0795L49.8864 11.5455H54.4375V29H50.858V17.6392H50.7131L46.196 28.9148H43.7585L39.2415 17.5966H39.0966V29H35.517V11.5455ZM63.3246 29.2557C62.0007 29.2557 60.8558 28.9744 59.8899 28.4119C58.9297 27.8437 58.1882 27.054 57.6655 26.0426C57.1428 25.0256 56.8814 23.8466 56.8814 22.5057C56.8814 21.1534 57.1428 19.9716 57.6655 18.9602C58.1882 17.9432 58.9297 17.1534 59.8899 16.5909C60.8558 16.0227 62.0007 15.7386 63.3246 15.7386C64.6484 15.7386 65.7905 16.0227 66.7507 16.5909C67.7166 17.1534 68.4609 17.9432 68.9837 18.9602C69.5064 19.9716 69.7678 21.1534 69.7678 22.5057C69.7678 23.8466 69.5064 25.0256 68.9837 26.0426C68.4609 27.054 67.7166 27.8437 66.7507 28.4119C65.7905 28.9744 64.6484 29.2557 63.3246 29.2557ZM63.3416 26.4432C63.9439 26.4432 64.4467 26.2727 64.8501 25.9318C65.2536 25.5852 65.5575 25.1136 65.7621 24.517C65.9723 23.9205 66.0774 23.2415 66.0774 22.4801C66.0774 21.7188 65.9723 21.0398 65.7621 20.4432C65.5575 19.8466 65.2536 19.375 64.8501 19.0284C64.4467 18.6818 63.9439 18.5085 63.3416 18.5085C62.7337 18.5085 62.2223 18.6818 61.8075 19.0284C61.3984 19.375 61.0888 19.8466 60.8786 20.4432C60.674 21.0398 60.5717 21.7188 60.5717 22.4801C60.5717 23.2415 60.674 23.9205 60.8786 24.517C61.0888 25.1136 61.3984 25.5852 61.8075 25.9318C62.2223 26.2727 62.7337 26.4432 63.3416 26.4432ZM76.9524 29.2131C75.9581 29.2131 75.0575 28.9574 74.2507 28.446C73.4496 27.929 72.8132 27.1705 72.3416 26.1705C71.8757 25.1648 71.6428 23.9318 71.6428 22.4716C71.6428 20.9716 71.8842 19.7244 72.3672 18.7301C72.8501 17.7301 73.4922 16.983 74.2933 16.4886C75.1001 15.9886 75.9837 15.7386 76.9439 15.7386C77.6768 15.7386 78.2876 15.8636 78.7763 16.1136C79.2706 16.358 79.6683 16.6648 79.9695 17.0341C80.2763 17.3977 80.5092 17.7557 80.6683 18.108H80.7791V11.5455H84.4013V29H80.8217V26.9034H80.6683C80.4979 27.267 80.2564 27.6278 79.9439 27.9858C79.6371 28.3381 79.2365 28.6307 78.7422 28.8636C78.2536 29.0966 77.657 29.2131 76.9524 29.2131ZM78.103 26.3239C78.6882 26.3239 79.1825 26.1648 79.5859 25.8466C79.995 25.5227 80.3075 25.071 80.5234 24.4915C80.745 23.9119 80.8558 23.233 80.8558 22.4545C80.8558 21.6761 80.7479 21 80.532 20.4261C80.3161 19.8523 80.0036 19.4091 79.5945 19.0966C79.1854 18.7841 78.6882 18.6278 78.103 18.6278C77.5064 18.6278 77.0036 18.7898 76.5945 19.1136C76.1854 19.4375 75.8757 19.8864 75.6655 20.4602C75.4553 21.0341 75.3501 21.6989 75.3501 22.4545C75.3501 23.2159 75.4553 23.8892 75.6655 24.4744C75.8814 25.054 76.1911 25.5085 76.5945 25.8381C77.0036 26.1619 77.5064 26.3239 78.103 26.3239ZM87.4545 29V11.5455H91.0852V18.108H91.196C91.3551 17.7557 91.5852 17.3977 91.8864 17.0341C92.1932 16.6648 92.5909 16.358 93.0795 16.1136C93.5739 15.8636 94.1875 15.7386 94.9205 15.7386C95.875 15.7386 96.7557 15.9886 97.5625 16.4886C98.3693 16.983 99.0142 17.7301 99.4972 18.7301C99.9801 19.7244 100.222 20.9716 100.222 22.4716C100.222 23.9318 99.9858 25.1648 99.5142 26.1705C99.0483 27.1705 98.4119 27.929 97.6051 28.446C96.804 28.9574 95.9063 29.2131 94.9119 29.2131C94.2074 29.2131 93.608 29.0966 93.1136 28.8636C92.625 28.6307 92.2244 28.3381 91.9119 27.9858C91.5994 27.6278 91.3608 27.267 91.196 26.9034H91.0341V29H87.4545ZM91.0085 22.4545C91.0085 23.233 91.1165 23.9119 91.3324 24.4915C91.5483 25.071 91.8608 25.5227 92.2699 25.8466C92.679 26.1648 93.1761 26.3239 93.7614 26.3239C94.3523 26.3239 94.8523 26.1619 95.2614 25.8381C95.6705 25.5085 95.9801 25.054 96.1903 24.4744C96.4063 23.8892 96.5142 23.2159 96.5142 22.4545C96.5142 21.6989 96.4091 21.0341 96.1989 20.4602C95.9886 19.8864 95.679 19.4375 95.2699 19.1136C94.8608 18.7898 94.358 18.6278 93.7614 18.6278C93.1705 18.6278 92.6705 18.7841 92.2614 19.0966C91.858 19.4091 91.5483 19.8523 91.3324 20.4261C91.1165 21 91.0085 21.6761 91.0085 22.4545ZM111.039 23.4261V15.9091H114.67V29H111.184V26.6222H111.048C110.752 27.3892 110.261 28.0057 109.573 28.4716C108.891 28.9375 108.059 29.1705 107.076 29.1705C106.201 29.1705 105.431 28.9716 104.766 28.5739C104.102 28.1761 103.582 27.6108 103.207 26.8778C102.837 26.1449 102.65 25.267 102.644 24.2443V15.9091H106.275V23.5966C106.281 24.3693 106.488 24.9801 106.897 25.429C107.306 25.8778 107.854 26.1023 108.542 26.1023C108.979 26.1023 109.388 26.0028 109.769 25.804C110.15 25.5994 110.457 25.2983 110.69 24.9006C110.928 24.5028 111.045 24.0114 111.039 23.4261ZM128.466 19.642L125.142 19.8466C125.085 19.5625 124.963 19.3068 124.776 19.0795C124.588 18.8466 124.341 18.6619 124.034 18.5256C123.733 18.3835 123.372 18.3125 122.952 18.3125C122.389 18.3125 121.915 18.4318 121.528 18.6705C121.142 18.9034 120.949 19.2159 120.949 19.608C120.949 19.9205 121.074 20.1847 121.324 20.4006C121.574 20.6165 122.003 20.7898 122.611 20.9205L124.98 21.3977C126.253 21.6591 127.202 22.0795 127.827 22.6591C128.452 23.2386 128.764 24 128.764 24.9432C128.764 25.8011 128.511 26.554 128.006 27.2017C127.506 27.8494 126.818 28.3551 125.943 28.7188C125.074 29.0767 124.071 29.2557 122.935 29.2557C121.202 29.2557 119.821 28.8949 118.793 28.1733C117.77 27.446 117.17 26.4574 116.994 25.2074L120.565 25.0199C120.673 25.5483 120.935 25.9517 121.349 26.2301C121.764 26.5028 122.295 26.6392 122.943 26.6392C123.58 26.6392 124.091 26.517 124.477 26.2727C124.869 26.0227 125.068 25.7017 125.074 25.3097C125.068 24.9801 124.929 24.7102 124.656 24.5C124.384 24.2841 123.963 24.1193 123.395 24.0057L121.128 23.554C119.849 23.2983 118.898 22.8551 118.273 22.2244C117.653 21.5937 117.344 20.7898 117.344 19.8125C117.344 18.9716 117.571 18.2472 118.026 17.6392C118.486 17.0312 119.131 16.5625 119.96 16.233C120.795 15.9034 121.773 15.7386 122.892 15.7386C124.545 15.7386 125.847 16.0881 126.795 16.7869C127.75 17.4858 128.307 18.4375 128.466 19.642ZM128.673 14.5881V11.5455H143.008V14.5881H137.664V29H134.016V14.5881H128.673ZM159.972 17.6562H156.239C156.171 17.1733 156.032 16.7443 155.822 16.3693C155.612 15.9886 155.342 15.6648 155.012 15.3977C154.683 15.1307 154.302 14.9261 153.87 14.7841C153.444 14.642 152.981 14.571 152.481 14.571C151.577 14.571 150.79 14.7955 150.12 15.2443C149.45 15.6875 148.93 16.3352 148.56 17.1875C148.191 18.0341 148.006 19.0625 148.006 20.2727C148.006 21.517 148.191 22.5625 148.56 23.4091C148.935 24.2557 149.458 24.8949 150.129 25.3267C150.799 25.7585 151.575 25.9744 152.455 25.9744C152.95 25.9744 153.407 25.9091 153.827 25.7784C154.254 25.6477 154.631 25.4574 154.961 25.2074C155.29 24.9517 155.563 24.642 155.779 24.2784C156.001 23.9148 156.154 23.5 156.239 23.0341L159.972 23.0511C159.876 23.8523 159.634 24.625 159.248 25.3693C158.867 26.108 158.353 26.7699 157.705 27.3551C157.063 27.9347 156.296 28.3949 155.404 28.7358C154.518 29.071 153.515 29.2386 152.396 29.2386C150.839 29.2386 149.447 28.8864 148.219 28.1818C146.998 27.4773 146.032 26.4574 145.322 25.1222C144.617 23.7869 144.265 22.1705 144.265 20.2727C144.265 18.3693 144.623 16.75 145.339 15.4148C146.055 14.0795 147.026 13.0625 148.254 12.3636C149.481 11.6591 150.862 11.3068 152.396 11.3068C153.407 11.3068 154.344 11.4489 155.208 11.733C156.077 12.017 156.847 12.4318 157.518 12.9773C158.188 13.517 158.734 14.179 159.154 14.9631C159.58 15.7472 159.853 16.6449 159.972 17.6562ZM162.619 29V11.5455H169.505C170.829 11.5455 171.957 11.7983 172.888 12.304C173.82 12.804 174.531 13.5 175.019 14.392C175.513 15.2784 175.761 16.3011 175.761 17.4602C175.761 18.6193 175.511 19.642 175.011 20.5284C174.511 21.4148 173.786 22.1051 172.837 22.5994C171.894 23.0937 170.752 23.3409 169.411 23.3409H165.022V20.3835H168.815C169.525 20.3835 170.11 20.2614 170.57 20.017C171.036 19.767 171.383 19.4233 171.61 18.9858C171.843 18.5426 171.96 18.0341 171.96 17.4602C171.96 16.8807 171.843 16.375 171.61 15.9432C171.383 15.5057 171.036 15.1676 170.57 14.929C170.104 14.6847 169.513 14.5625 168.798 14.5625H166.309V29H162.619Z" fill="white"/>
<circle cx="204" cy="20" r="4" fill="#00BFFF"/>
<circle cx="204" cy="20" r="4" fill="#00BFFF"/>
<circle cx="204" cy="20" r="4" fill="#246F88"/>
<circle cx="4" cy="20" r="4" fill="#246F88"/>
<circle cx="4" cy="20" r="4" fill="#246F88"/>
<circle cx="4" cy="20" r="4" fill="#246F88"/>
</svg>
